<svg viewBox="0 0 512 512" fill="none" xmlns="http://www.w3.org/2000/svg">
    <circle cx="256" cy="256" r="256" fill="black"/>
    <path d="M397.831 215.86C392.554 215.861 387.345 217.028 382.584 219.277C377.823 221.525 373.633 224.797 370.319 228.853L369.01 228.329C355.424 223.009 341.406 218.838 327.106 215.86C327.106 197.332 319.654 179.563 306.391 166.461C293.127 153.36 275.138 146 256.38 146C237.623 146 219.634 153.36 206.37 166.461C193.106 179.563 185.655 197.332 185.655 215.86L184.134 216.209C170.363 219.115 156.856 223.134 143.75 228.225L142.442 228.749C136.91 221.943 129.017 217.409 120.292 216.026C111.568 214.644 102.635 216.511 95.2251 221.266C87.8157 226.021 82.4583 233.325 80.1922 241.761C77.9261 250.197 78.9128 259.163 82.9609 266.921C87.009 274.679 93.8299 280.676 102.101 283.747C110.371 286.819 119.502 286.747 127.722 283.545C135.942 280.344 142.665 274.24 146.587 266.419C150.509 258.599 151.351 249.618 148.949 241.219C161.332 236.404 174.094 232.595 187.105 229.831C190.385 245.586 199.069 259.74 211.69 269.904C224.311 280.068 240.096 285.618 256.38 285.618C272.664 285.618 288.449 280.068 301.071 269.904C313.692 259.74 322.375 245.586 325.656 229.831C338.651 232.568 351.399 236.341 363.777 241.114C361.723 248.15 361.96 255.647 364.455 262.543C366.95 269.439 371.576 275.387 377.68 279.544C383.783 283.702 391.055 285.859 398.468 285.712C405.88 285.564 413.058 283.119 418.987 278.723C424.916 274.326 429.296 268.199 431.508 261.209C433.72 254.22 433.652 246.72 431.313 239.77C428.974 232.821 424.483 226.774 418.475 222.483C412.467 218.192 405.245 215.875 397.831 215.86ZM114.93 271.747C110.733 271.747 106.631 270.518 103.142 268.215C99.6526 265.912 96.9331 262.639 95.3272 258.809C93.7213 254.98 93.3011 250.766 94.1198 246.701C94.9385 242.635 96.9592 238.901 99.9266 235.97C102.894 233.039 106.675 231.043 110.79 230.234C114.906 229.425 119.172 229.841 123.049 231.427C126.926 233.013 130.24 235.699 132.571 239.146C134.903 242.592 136.147 246.644 136.147 250.789C136.147 256.348 133.912 261.678 129.933 265.609C125.954 269.539 120.557 271.747 114.93 271.747ZM256.38 271.747C245.19 271.747 234.251 268.469 224.946 262.328C215.641 256.187 208.389 247.459 204.107 237.247C199.825 227.035 198.704 215.798 200.887 204.956C203.07 194.115 208.459 184.157 216.372 176.341C224.285 168.525 234.367 163.202 245.342 161.046C256.318 158.889 267.694 159.996 278.033 164.226C288.371 168.456 297.208 175.619 303.425 184.81C309.642 194.001 312.961 204.806 312.961 215.86C312.961 230.682 306.999 244.897 296.389 255.378C285.778 265.859 271.386 271.747 256.38 271.747ZM397.831 271.747C393.635 271.747 389.532 270.518 386.043 268.215C382.554 265.912 379.834 262.639 378.228 258.809C376.623 254.98 376.202 250.766 377.021 246.701C377.84 242.635 379.861 238.901 382.828 235.97C385.795 233.039 389.576 231.043 393.692 230.234C397.807 229.425 402.074 229.841 405.951 231.427C409.828 233.013 413.141 235.699 415.473 239.146C417.804 242.592 419.049 246.644 419.049 250.789C419.049 256.348 416.813 261.678 412.834 265.609C408.855 269.539 403.458 271.747 397.831 271.747ZM284.67 215.86C284.67 221.386 283.011 226.789 279.903 231.384C276.794 235.98 272.376 239.561 267.207 241.676C262.037 243.791 256.349 244.345 250.861 243.266C245.373 242.188 240.333 239.527 236.376 235.619C232.42 231.711 229.725 226.732 228.634 221.311C227.542 215.891 228.102 210.272 230.244 205.166C232.385 200.06 236.011 195.696 240.663 192.625C245.315 189.555 250.785 187.916 256.38 187.916C263.883 187.916 271.079 190.86 276.384 196.1C281.69 201.341 284.67 208.448 284.67 215.86Z" fill="#167C80"/>
    <path d="M155.514 348V301.455H165.355V339.886H185.31V348H155.514ZM191.827 348V301.455H223.19V309.568H201.668V320.659H221.577V328.773H201.668V339.886H223.281V348H191.827ZM239.037 348H228.491L244.56 301.455H257.241L273.287 348H262.741L251.082 312.091H250.719L239.037 348ZM238.378 329.705H263.287V337.386H238.378V329.705ZM278.889 348V301.455H288.73V321.977H289.344L306.094 301.455H317.889L300.616 322.295L318.094 348H306.321L293.571 328.864L288.73 334.773V348H278.889ZM347.889 314.841C347.707 313.008 346.927 311.583 345.548 310.568C344.17 309.553 342.298 309.045 339.935 309.045C338.329 309.045 336.973 309.273 335.866 309.727C334.76 310.167 333.912 310.78 333.321 311.568C332.745 312.356 332.457 313.25 332.457 314.25C332.427 315.083 332.601 315.811 332.98 316.432C333.374 317.053 333.912 317.591 334.594 318.045C335.276 318.485 336.063 318.871 336.957 319.205C337.851 319.523 338.806 319.795 339.821 320.023L344.003 321.023C346.033 321.477 347.897 322.083 349.594 322.841C351.291 323.598 352.76 324.53 354.003 325.636C355.245 326.742 356.207 328.045 356.889 329.545C357.586 331.045 357.942 332.765 357.957 334.705C357.942 337.553 357.215 340.023 355.776 342.114C354.351 344.189 352.291 345.803 349.594 346.955C346.912 348.091 343.677 348.659 339.889 348.659C336.132 348.659 332.859 348.083 330.071 346.932C327.298 345.78 325.132 344.076 323.571 341.818C322.026 339.545 321.215 336.735 321.139 333.386H330.662C330.768 334.947 331.215 336.25 332.003 337.295C332.806 338.326 333.874 339.106 335.207 339.636C336.556 340.152 338.079 340.409 339.776 340.409C341.442 340.409 342.889 340.167 344.116 339.682C345.359 339.197 346.321 338.523 347.003 337.659C347.685 336.795 348.026 335.803 348.026 334.682C348.026 333.636 347.715 332.758 347.094 332.045C346.488 331.333 345.594 330.727 344.412 330.227C343.245 329.727 341.813 329.273 340.116 328.864L335.048 327.591C331.124 326.636 328.026 325.144 325.753 323.114C323.48 321.083 322.351 318.348 322.366 314.909C322.351 312.091 323.101 309.629 324.616 307.523C326.147 305.417 328.245 303.773 330.912 302.591C333.579 301.409 336.609 300.818 340.003 300.818C343.457 300.818 346.473 301.409 349.048 302.591C351.639 303.773 353.654 305.417 355.094 307.523C356.533 309.629 357.276 312.068 357.321 314.841H347.889Z" fill="#167C80"/>
</svg>
